<svg viewBox="0 0 32 32" fill="none" xmlns="http://www.w3.org/2000/svg">
  <rect width="32" height="32" rx="6" fill="#08050d"/>
  <circle cx="10" cy="9" r="4" fill="#7311d4"/>
  <path d="M3 24C3 19.5817 6.58172 16 11 16C12.6569 16 14 17.3431 14 19V24C14 25.1046 13.1046 26 12 26H5C3.89543 26 3 25.1046 3 24Z" fill="#7311d4" fill-opacity="0.7"/>
  <circle cx="22" cy="9" r="4" fill="#7311d4"/>
  <path d="M18 24C18 19.5817 21.5817 16 26 16C27.6569 16 29 17.3431 29 19V24C29 25.1046 28.1046 26 27 26H20C18.8954 26 18 25.1046 18 24Z" fill="#7311d4"/>
</svg>

