<svg viewBox="0 0 512 512" fill="none" xmlns="http://www.w3.org/2000/svg">
  <rect width="512" height="512" fill="#F5C301"/>
  <rect x="20" y="20" width="472" height="472" fill="#F5C301" stroke="#211408" stroke-width="8"/>
  <circle cx="160" cy="144" r="64" fill="#211408"/>
  <path d="M48 384C48 313.072 105.072 256 176 256C201.472 256 224 278.528 224 304V384C224 401.673 209.673 416 192 416H80C62.3269 416 48 401.673 48 384Z" fill="#211408" fill-opacity="0.7"/>
  <circle cx="352" cy="144" r="64" fill="#211408"/>
  <path d="M288 384C288 313.072 345.072 256 416 256C441.472 256 464 278.528 464 304V384C464 401.673 449.673 416 432 416H320C302.327 416 288 401.673 288 384Z" fill="#211408"/>
  <path d="M180 180L200 200L240 160" stroke="#F5C301" stroke-width="12" stroke-linecap="round" stroke-linejoin="round"/>
</svg>

